# xmcd CD database file
# Copyright (C) 1993-1998 Ti Kan
#
# Track frame offsets:
#	150
#	12462
#	24370
#	37290
#	49537
#	62985
#	77735
#	91195
#	105452
#	118800
#	131275
#	145485
#	156912
#	170322
#
# Disc length: 2443 seconds
#
# Revision: 1
# Processed by: cddbd v1.4b41PL1 Copyright (c) Steve Scherf et al.
# Submitted via: xmcd 2.2 PL1
#
DISCID=b709890e
DTITLE=Sonny Boy Williamson - The Original
DYEAR=1900
DGENRE=
TTITLE0=Check Up On My Baby
TTITLE1=Bad Luck Blues
TTITLE2=Welfare Store
TTITLE3=She Don't Love Me That Way
TTITLE4=Shotgun Blues
TTITLE5=Sloppy Drunk Blues
TTITLE6=Western Union Man
TTITLE7=Collector Man
TTITLE8=Joe Louis and John Henry
TTITLE9=My Black Name
TTITLE10=Until My Love Come Down
TTITLE11=Black Panther Blues
TTITLE12=My Little Machine
TTITLE13=Jivin' the Blues
EXTD=
EXTT0=
EXTT1=
EXTT2=
EXTT3=
EXTT4=
EXTT5=
EXTT6=
EXTT7=
EXTT8=
EXTT9=
EXTT10=
EXTT11=
EXTT12=
EXTT13=
PLAYORDER=
